<svg id="Layer_1" data-name="Layer 1" xmlns="http://www.w3.org/2000/svg" viewBox="0 0 251.06 251.06"><defs><style>.cls-1{fill:#414042;}</style></defs><title>ARTFRAME_SAMPLES</title><path class="cls-1" d="M216,128.12a11.62,11.62,0,0,0-.16,1.79c0,.75-.07,1.61,0,2.48l.26,2.23a4.21,4.21,0,0,0,.81,2,4.57,4.57,0,0,1,.15-1.35,17.34,17.34,0,0,1,.52-1.9c.64-1.85,1.53-3.25,2-3.07s.28,1.88-.36,3.77c-.13.37-.26.72-.4,1s-.31.6-.46.86a3.51,3.51,0,0,1-.85,1,1.2,1.2,0,0,0,.51,0,5.46,5.46,0,0,0,2.94-1.77,13.23,13.23,0,0,0,2.17-3.11,8.28,8.28,0,0,0,.57-1.5,5.61,5.61,0,0,0,.13-1.3,2.84,2.84,0,0,0-.58-1.8c-.68-.78-1.85-.61-2.9.82C221.07,124.49,216.7,124.87,216,128.12Z"/><path class="cls-1" d="M207.44,135.38a14.64,14.64,0,0,0,3.48,1.64l2,.47a3.21,3.21,0,0,0,2-.24,6.46,6.46,0,0,1-2.48-1.65c-1.27-1.22-2.16-2.47-1.85-2.85s1.63.22,3,1.44a5.8,5.8,0,0,1,1.83,2.58,1.69,1.69,0,0,0,.22-.53,4.28,4.28,0,0,0,0-1.68,9.32,9.32,0,0,0-.56-1.85,11,11,0,0,0-1.81-3.06c-1.41-1.55-2.8-1.78-3.64-1.32a1.52,1.52,0,0,0-.75,1.17,3.3,3.3,0,0,0,.42,1.9c-1.4-1-2.46-.36-2.86.64a2.68,2.68,0,0,0-.05,1.71A2.88,2.88,0,0,0,207.44,135.38Z"/><path class="cls-1" d="M210.05,146.32a13.11,13.11,0,0,0,2.93-2.81l1.15-1.86a4.2,4.2,0,0,0,.54-2.13,6.64,6.64,0,0,1-2.38,2c-1.56.89-3,1.18-3.2.74s.87-1.47,2.44-2.36a10.81,10.81,0,0,1,1.72-.81,2.75,2.75,0,0,1,1.19-.23,1.41,1.41,0,0,0-.38-.39c-1.55-1.07-4.79-.55-6.49.06-1.91.68-2.75,1.79-2.71,2.74a1.54,1.54,0,0,0,.65,1.2,2.83,2.83,0,0,0,1.84.42c-1.48.88-1.45,2.07-.74,2.92A2.68,2.68,0,0,0,210.05,146.32Z"/><path class="cls-1" d="M221,147.6a13.11,13.11,0,0,0-1.47-4.07l-1.22-1.81a3.15,3.15,0,0,0-1.65-1.16,7.52,7.52,0,0,1,.9,3.14,9,9,0,0,1,0,2.58c-.11.68-.3,1.12-.53,1.16-.48.07-1-1.48-1.12-3.42a7.59,7.59,0,0,1,.13-3.41,1.62,1.62,0,0,0-.46.28,7.18,7.18,0,0,0-1.72,3.13,14.37,14.37,0,0,0-.78,3.65c-.44,4.37,2.67,5.44,3.86,1.87.19,1.9,1.31,2.33,2.35,1.82a3.3,3.3,0,0,0,1.38-1.41A4.12,4.12,0,0,0,221,147.6Z"/><path class="cls-1" d="M225.2,135a13.12,13.12,0,0,0-3.77,1.1l-1.88,1a4,4,0,0,0-1.49,1.55,5.93,5.93,0,0,1,2.93-.27c1.74.18,3.1.78,3,1.36s-1.51.87-3.25.65a5.44,5.44,0,0,1-2.87-1,1.65,1.65,0,0,0,.09.57c.56,1.94,3.35,3.86,5,4.49,1.89.7,3.27.13,3.84-.89a2.5,2.5,0,0,0-1.07-3.36,2.12,2.12,0,0,0,2.13-2.67A2.74,2.74,0,0,0,225.2,135Z"/><path class="cls-1" d="M215.34,136.48a1.89,1.89,0,0,1,2.74,1,2.5,2.5,0,0,1-1,3.15,1.91,1.91,0,0,1-2.69-1.07A2.44,2.44,0,0,1,215.34,136.48Z"/><path class="cls-1" d="M214.46,154.45a11.22,11.22,0,0,1-.48,1.8,14.18,14.18,0,0,1-1,2.36l-1.23,1.94a3.62,3.62,0,0,1-1.69,1.38,2.86,2.86,0,0,0,.3-.51c.08-.21.17-.46.25-.74a14.12,14.12,0,0,0,.37-1.93c.26-1.93-.07-3.51-.54-3.51-.24,0-.48.38-.67,1a12.15,12.15,0,0,0-.52,2.42,13.09,13.09,0,0,0-.07,2,3.71,3.71,0,0,0,.21,1.29,1.3,1.3,0,0,1-.46-.22,3.53,3.53,0,0,1-1-1.18,10.91,10.91,0,0,1-.75-1.69,13.52,13.52,0,0,1-.71-3.44c-.19-2.1.49-3.4,1.38-3.83s2,0,2.48,1.65a3.5,3.5,0,0,1,.35-1.13,1.79,1.79,0,0,1,.54-.7,1.6,1.6,0,0,1,1.48-.23,2.5,2.5,0,0,1,1.36,1.11,3.12,3.12,0,0,1,.38,1A3.27,3.27,0,0,1,214.46,154.45Z"/><path class="cls-1" d="M218.87,165.57a11.18,11.18,0,0,1-3.94-.17l-1.93-.61a3.17,3.17,0,0,1-1.54-1.27,6,6,0,0,0,3-.26c1.76-.53,3.14-1.46,3.07-2s-1.59-.46-3.36.09a10.79,10.79,0,0,0-1.81.73,3.9,3.9,0,0,0-1.11.75,1.71,1.71,0,0,1,.1-.57,7.65,7.65,0,0,1,2.15-3,19.27,19.27,0,0,1,3-2.27c1.9-1.07,3.32-.91,3.91-.1s.37,2.26-1,3.52c1.75-.46,2.42.62,2.24,2A3.82,3.82,0,0,1,218.87,165.57Z"/><path class="cls-1" d="M209.4,174.34a10.32,10.32,0,0,1-.17-1.8c0-.75,0-1.61,0-2.51l.27-2.28a5.15,5.15,0,0,1,.87-2.11,8.2,8.2,0,0,0,.67,3.12c.67,1.74,1.55,3,2,2.71s.32-2-.36-3.68a5.55,5.55,0,0,0-1.77-2.61,1.33,1.33,0,0,1,.53-.13c1.88-.14,4.35,2.1,5.33,3.76a4.84,4.84,0,0,1,.77,2.58,3.27,3.27,0,0,1-.57,1.93c-.72,1-1.95,1.11-3.07-.09a2.41,2.41,0,0,1-1.73,3.17A2.43,2.43,0,0,1,209.4,174.34Z"/><path class="cls-1" d="M200.52,167.78a11.31,11.31,0,0,1,1.47-.86,20.92,20.92,0,0,1,2.11-1l2-.62a3.43,3.43,0,0,1,2,.05,7.75,7.75,0,0,0-2.59,1.9,11.49,11.49,0,0,0-.9,1,10.41,10.41,0,0,0-.69.89c-.37.55-.51,1-.37,1.16s.58.1,1.14-.21a8.6,8.6,0,0,0,1.95-1.53,7.58,7.58,0,0,0,2-2.81,1.64,1.64,0,0,1,.21.5,7,7,0,0,1-.59,3.62,14,14,0,0,1-2,3.34,5.4,5.4,0,0,1-2.14,1.7,2.05,2.05,0,0,1-1.66.05c-.86-.42-1.1-1.62-.24-3.16-1.49,1.08-2.55.49-2.91-.55A3.21,3.21,0,0,1,200.52,167.78Z"/><path class="cls-1" d="M203.46,156.7a12.08,12.08,0,0,1,2.91,2.57l.59.85.57.86a3.57,3.57,0,0,1,.49,2,5.89,5.89,0,0,0-2.36-1.75c-1.58-.75-3-1-3.24-.56s.88,1.43,2.44,2.22a5.39,5.39,0,0,0,2.92.78,1.8,1.8,0,0,1-.37.42,5.38,5.38,0,0,1-3.26.87,10.62,10.62,0,0,1-3.34-.53c-1.88-.67-2.69-1.84-2.65-2.77s.93-1.69,2.54-1.59c-1.45-.88-1.4-2.06-.66-2.85A2.8,2.8,0,0,1,203.46,156.7Z"/><path class="cls-1" d="M211.47,162.59a1.93,1.93,0,0,0-2.87-.56,2.49,2.49,0,0,0-.8,3.13,1.89,1.89,0,0,0,1.23,1,2,2,0,0,0,1.6-.34A2.59,2.59,0,0,0,211.47,162.59Z"/><path class="cls-1" d="M200.28,176.69a18.82,18.82,0,0,0-2.47,3.5l-1,2a4.34,4.34,0,0,0-.38,2.14,8.54,8.54,0,0,1,2.32-2.38c.39-.3.78-.56,1.14-.79a10,10,0,0,1,1-.57c.59-.29,1-.38,1.17-.18.27.39-.73,1.79-2.35,3a6.42,6.42,0,0,1-3,1.54,1.44,1.44,0,0,0,.4.33,5.27,5.27,0,0,0,3.41.07,12.76,12.76,0,0,0,3.54-1.4c1.95-1.26,2.76-2.79,2.6-3.81a1.3,1.3,0,0,0-.89-1.07,3,3,0,0,0-2,.19,2.6,2.6,0,0,0,.93-2,1.57,1.57,0,0,0-.78-1.3A3,3,0,0,0,200.28,176.69Z"/><path class="cls-1" d="M189.14,178.16a14.79,14.79,0,0,0,2,3.26l1.4,1.46a3.13,3.13,0,0,0,1.8.86,6.47,6.47,0,0,1-1.18-2.72c-.46-1.75-.49-3.25,0-3.41s1.25,1.08,1.71,2.82a5.79,5.79,0,0,1,.17,3.19,1.65,1.65,0,0,0,.48-.33A6.73,6.73,0,0,0,197,180c.06-.32.12-.64.16-1s0-.65.05-1a11.36,11.36,0,0,0-.1-1.64c-.32-2.05-1.36-3-2.32-3.06s-1.83.74-1.92,2.4c-.7-1.59-1.86-1.62-2.76-1A2.86,2.86,0,0,0,189.14,178.16Z"/><path class="cls-1" d="M185.38,188.76a8.7,8.7,0,0,0,1.68-.17c.36-.06.74-.14,1.13-.24s.78-.24,1.17-.38l2-.92a7.18,7.18,0,0,0,1-.7,3.23,3.23,0,0,0,.61-.82,3.74,3.74,0,0,1-1.24.37,10.85,10.85,0,0,1-1.83,0c-1.81-.11-3.18-.65-3.12-1.13s1.56-.74,3.36-.64a6,6,0,0,1,3,.68,1.46,1.46,0,0,0-.1-.53c-.7-1.72-3.74-3.06-5.48-3.46a6.07,6.07,0,0,0-1.33-.16,4.14,4.14,0,0,0-1.1.11,2.09,2.09,0,0,0-1.34.88c-.49.79-.17,1.95,1.22,2.72-1.7,0-2.35,1-2.21,2.05A2.7,2.7,0,0,0,185.38,188.76Z"/><path class="cls-1" d="M193.91,195.77a8.35,8.35,0,0,0,.58-1.76,18.11,18.11,0,0,0,.38-2.46l0-2.17a3.13,3.13,0,0,0-.76-1.87,7.27,7.27,0,0,1-1,3.11c-.87,1.8-2.06,3-2.5,2.84-.22-.1-.22-.54-.05-1.17a10.83,10.83,0,0,1,.38-1.06c.16-.39.34-.82.56-1.26a7.75,7.75,0,0,1,2-2.77,1.59,1.59,0,0,0-.54,0,6.91,6.91,0,0,0-3.17,1.69c-.5.44-1,.89-1.48,1.34a11.55,11.55,0,0,0-1.15,1.3,8.35,8.35,0,0,0-.79,1.27,4.21,4.21,0,0,0-.41,1.09,2.1,2.1,0,0,0,.19,1.65c.53.78,1.81.86,3.24-.34-.84,1.72-.16,2.66,1,2.81A3.69,3.69,0,0,0,193.91,195.77Z"/><path class="cls-1" d="M204.26,187.42a13.06,13.06,0,0,0-3.75-1.11l-1-.08c-.52,0-1.06-.09-1.06-.09a4.11,4.11,0,0,0-2.12.48A6,6,0,0,1,198.9,188c1.37,1.09,2.18,2.33,1.81,2.78s-1.76-.1-3.1-1.22a5.56,5.56,0,0,1-1.87-2.4,2,2,0,0,0-.24.53,4.49,4.49,0,0,0-.08,1.65,8,8,0,0,0,.39,1.8,10.57,10.57,0,0,0,1.52,3.05c1.2,1.61,2.67,1.89,3.71,1.36a2.52,2.52,0,0,0,.9-3.42,2.14,2.14,0,0,0,3.26-1.07A2.81,2.81,0,0,0,204.26,187.42Z"/><path class="cls-1" d="M195.18,183.36a1.88,1.88,0,0,1,1.76,2.3,2.54,2.54,0,0,1-2.54,2.09,2,2,0,0,1-1.71-2.37A2.45,2.45,0,0,1,195.18,183.36Z"/><path class="cls-1" d="M184.71,198a17.9,17.9,0,0,1-3.5,2.69l-2.1.95a4,4,0,0,1-2.16.27,8.51,8.51,0,0,0,2.49-2.19,8.17,8.17,0,0,0,1.33-2.1c.25-.59.31-1,.11-1.16-.41-.27-1.61.81-2.85,2.25a7.38,7.38,0,0,0-1.66,2.87,1.28,1.28,0,0,1-.28-.43,6.2,6.2,0,0,1,.1-3.37,14.81,14.81,0,0,1,1.25-3.28c1-1.88,2.28-2.57,3.24-2.47s1.63,1.09,1.2,2.73c1.18-1.41,2.4-1.29,3.1-.46A2.89,2.89,0,0,1,184.71,198Z"/><path class="cls-1" d="M182.41,209.73a11.26,11.26,0,0,1-3.23-2.28l-1.29-1.55a3.13,3.13,0,0,1-.61-1.9,5.68,5.68,0,0,0,2.68,1.41c1.77.51,3.45.48,3.67,0s-1.08-1.25-2.87-1.75a7.24,7.24,0,0,0-3.25-.32,2.2,2.2,0,0,1,.39-.43,7.24,7.24,0,0,1,3.44-1.37c.68-.12,1.36-.23,2-.28a11.37,11.37,0,0,1,1.72,0c2.18.13,3.29,1,3.35,2s-.93,2.08-2.76,2.4a1.78,1.78,0,0,1,1.38,1.24,1.93,1.93,0,0,1-.55,1.62A3.9,3.9,0,0,1,182.41,209.73Z"/><path class="cls-1" d="M169.71,212a21,21,0,0,1,2.19-3.7l1.46-1.77a5.42,5.42,0,0,1,1.87-1.33,4.43,4.43,0,0,0-.6,1.2,12.79,12.79,0,0,0-.52,1.81c-.38,1.82-.31,3.34.23,3.36s1.34-1.45,1.69-3.29a5.57,5.57,0,0,0-.08-3.15,1.58,1.58,0,0,1,.52.17c1.65.91,2.52,4.12,2.45,6a4,4,0,0,1-2.26,3.9c-1.12.42-2.24-.12-2.54-1.73a2.72,2.72,0,0,1-1.41,1.71,2.26,2.26,0,0,1-1.75,0A2.44,2.44,0,0,1,169.71,212Z"/><path class="cls-1" d="M165.76,201.69a18.63,18.63,0,0,1,4,.38l2.05.57a3.35,3.35,0,0,1,1.67,1.11,8.91,8.91,0,0,0-3.2.22,13.76,13.76,0,0,0-2.36.75c-.6.26-1,.54-.94.78s.44.38,1.08.43a7,7,0,0,0,1.12,0c.42,0,.87-.13,1.34-.23a7.1,7.1,0,0,0,3.16-1.31,1.32,1.32,0,0,1-.08.54,7,7,0,0,1-2.46,2.72c-.28.2-.58.4-.87.59l-.91.48a13.89,13.89,0,0,1-1.67.69,5.32,5.32,0,0,1-2.71.29,2.1,2.1,0,0,1-1.43-.86,1.38,1.38,0,0,1,0-1.39,3.72,3.72,0,0,1,1.51-1.41,2.08,2.08,0,0,1-1.85-.56,1.59,1.59,0,0,1-.3-1.45A3.14,3.14,0,0,1,165.76,201.69Z"/><path class="cls-1" d="M174.22,193.94a12.32,12.32,0,0,1,1.06,3.72l0,1,0,1a3.66,3.66,0,0,1-.7,2,5.78,5.78,0,0,0-1-2.75c-.92-1.49-2-2.48-2.43-2.23s0,1.68.86,3.19a5.41,5.41,0,0,0,2,2.23,1.6,1.6,0,0,1-.55.15,3.81,3.81,0,0,1-1.57-.21,7.08,7.08,0,0,1-1.63-.81,10.54,10.54,0,0,1-2.53-2.24c-1.23-1.58-1.28-3-.73-3.76a1.61,1.61,0,0,1,1.21-.64,2.9,2.9,0,0,1,1.78.66c-.75-1.53-.05-2.47,1-2.76A2.81,2.81,0,0,1,174.22,193.94Z"/><path class="cls-1" d="M177.79,203.23a1.84,1.84,0,0,0-.57-1.48,2.19,2.19,0,0,0-1.54-.54,2.48,2.48,0,0,0-2.38,2.19,1.87,1.87,0,0,0,2,2.06A2.56,2.56,0,0,0,177.79,203.23Z"/><path class="cls-1" d="M160.76,209.07a17,17,0,0,0-4,1.6,2.68,2.68,0,0,1-.3.18l-.66.39-1,.56a4.08,4.08,0,0,0-1.47,1.59,8.21,8.21,0,0,1,3.23-.74l.72,0,.67,0a7.82,7.82,0,0,1,1.13,0c.66.08,1.07.24,1.08.48s-.38.51-1,.75a9.51,9.51,0,0,1-1.14.32,13.77,13.77,0,0,1-1.41.19,7.13,7.13,0,0,1-3.36-.33,1.2,1.2,0,0,0,.17.49,5.32,5.32,0,0,0,2.82,1.89,11.45,11.45,0,0,0,3.73.72c2.33,0,3.85-.81,4.25-1.79s-.22-2-1.94-2.29C166.13,212.1,164,208.28,160.76,209.07Z"/><path class="cls-1" d="M150.59,204.26a11.47,11.47,0,0,0-.14,1.63,19.32,19.32,0,0,0,.09,2.23l.38,2a3.28,3.28,0,0,0,1.05,1.71,6.73,6.73,0,0,1,.47-3c.56-1.71,1.35-3,1.83-2.86s.47,1.59-.08,3.29a6.19,6.19,0,0,1-1.58,2.78,1.88,1.88,0,0,0,.57,0,6.8,6.8,0,0,0,3-1.94,11.56,11.56,0,0,0,2-3c.84-1.88.47-3.24-.3-3.82s-1.94-.37-2.92,1c.28-1.69-.7-2.38-1.76-2.32A2.82,2.82,0,0,0,150.59,204.26Z"/><path class="cls-1" d="M141.7,211.15a9.65,9.65,0,0,0,1.52.79,17.37,17.37,0,0,0,2.26.69l2.18.33a4.09,4.09,0,0,0,2.15-.43,6.14,6.14,0,0,1-2.8-1.31c-1.46-1.08-2.32-2.28-2-2.64.16-.19.58-.13,1.15.11a9.44,9.44,0,0,1,1,.48,12.37,12.37,0,0,1,1.06.68,6,6,0,0,1,2.14,2.19,1.17,1.17,0,0,0,.2-.5c.34-1.82-1.49-4.6-2.73-5.88a5,5,0,0,0-2-1.33,2.12,2.12,0,0,0-1.61,0c-.84.4-1.2,1.53-.45,2.94a2.24,2.24,0,0,0-1.82-.44,1.71,1.71,0,0,0-1.14,1A2.7,2.7,0,0,0,141.7,211.15Z"/><path class="cls-1" d="M145.08,221.68a14.81,14.81,0,0,0,3.09-3l.58-.92c.29-.44.57-.92.57-.92a3.19,3.19,0,0,0,.37-2,4,4,0,0,1-.87,1,10.8,10.8,0,0,1-1.62,1.11,11.68,11.68,0,0,1-2.36,1.07c-.66.2-1.14.17-1.28,0s.11-.57.6-1a13.54,13.54,0,0,1,3.9-2.37,4.76,4.76,0,0,1,1.31-.36,1.56,1.56,0,0,0-.43-.3,3.45,3.45,0,0,0-.75-.22,5.68,5.68,0,0,0-.87-.13,10,10,0,0,0-2,.06,17.59,17.59,0,0,0-2,.35,12.9,12.9,0,0,0-1.67.44,5.9,5.9,0,0,0-2.29,1.36,2.1,2.1,0,0,0-.73,1.49c0,.94,1.06,1.71,2.91,1.44-1.64,1-1.58,2.2-.68,2.92A3.78,3.78,0,0,0,145.08,221.68Z"/><path class="cls-1" d="M158.32,220.24a13.66,13.66,0,0,0-2.57-3L154.07,216a4.36,4.36,0,0,0-2-.73,5.85,5.85,0,0,1,1.48,2.57c.56,1.66.57,3.14,0,3.3s-1.43-1-1.95-2.7a5.5,5.5,0,0,1-.27-3,2,2,0,0,0-.49.31,6.37,6.37,0,0,0-1.6,3.09,11,11,0,0,0-.39,3.38c.14,2,1.23,3,2.4,3.16a2.58,2.58,0,0,0,2.61-2.4,2,2,0,0,0,1.49,1.28,2.24,2.24,0,0,0,.93,0,3.2,3.2,0,0,0,.9-.42A2.78,2.78,0,0,0,158.32,220.24Z"/><path class="cls-1" d="M152.86,211.91a1.91,1.91,0,0,1,.25,2.91,2.57,2.57,0,0,1-3.29.35,1.93,1.93,0,0,1-.14-2.91A2.49,2.49,0,0,1,152.86,211.91Z"/><path class="cls-1" d="M136.13,218.53a14.48,14.48,0,0,1-4.4.36l-1.14-.13-.78-.11-.35-.06a4.09,4.09,0,0,1-2-1,4.47,4.47,0,0,0,1.37,0,9.08,9.08,0,0,0,1.91-.44c1.86-.64,3.17-1.52,3-2s-1.79-.28-3.61.36a7,7,0,0,0-2.95,1.47,1.14,1.14,0,0,1,0-.52,5.9,5.9,0,0,1,1.9-2.75,16.3,16.3,0,0,1,2.83-2.1,5.44,5.44,0,0,1,2.44-.74,2.24,2.24,0,0,1,1.62.42c.75.61.78,1.79-.47,3C139,213.16,139.44,217.5,136.13,218.53Z"/><path class="cls-1" d="M127.84,227.13a11.31,11.31,0,0,1-1.47-3.63l-.25-2a3.27,3.27,0,0,1,.52-1.94,5.8,5.8,0,0,0,1.49,2.63c1.21,1.4,2.63,2.33,3.09,2,.23-.15.17-.56-.1-1.1a10.55,10.55,0,0,0-1.36-1.92,7.08,7.08,0,0,0-2.57-2.06,1.82,1.82,0,0,1,.57-.16,8.33,8.33,0,0,1,3.63.73,15,15,0,0,1,3.3,1.77,5.14,5.14,0,0,1,1.7,1.9,1.78,1.78,0,0,1,0,1.61c-.48.91-1.9,1.24-3.62.49,1.14,1.39.44,2.46-.85,2.88a4.35,4.35,0,0,1-1,.18,4.28,4.28,0,0,1-1.11-.14A3.51,3.51,0,0,1,127.84,227.13Z"/><path class="cls-1" d="M116,222.21a17.67,17.67,0,0,1,3.85-1.94l.34-.1c.21-.06.48-.14.75-.24l1.09-.38a4.65,4.65,0,0,1,2.29-.09,7.44,7.44,0,0,0-2.56,1.92c-1.31,1.37-2.07,2.65-1.62,3s1.91-.55,3.19-1.9a5.36,5.36,0,0,0,1.63-2.66,1.65,1.65,0,0,1,.35.43,4.94,4.94,0,0,1,.15,3.24,9.72,9.72,0,0,1-1.35,3.15,4.2,4.2,0,0,1-4,2.08c-1.16-.28-1.81-1.36-1.19-2.86-1.49,1.14-2.93.73-3.61-.21A2.44,2.44,0,0,1,116,222.21Z"/><path class="cls-1" d="M118.21,211.38a17.8,17.8,0,0,1,3.16,2.51l1.41,1.55a3.36,3.36,0,0,1,.8,1.85,7.68,7.68,0,0,0-2.81-1.51c-1.79-.72-3.38-.95-3.6-.52s1,1.36,2.88,2.08a8.83,8.83,0,0,0,2,.55,4,4,0,0,0,1.37,0,1.34,1.34,0,0,1-.36.4,4.52,4.52,0,0,1-1.53.7,9.21,9.21,0,0,1-1,.21c-.34,0-.68.06-1,.07a14.94,14.94,0,0,1-3.87-.36c-4.44-1.29-3.88-4.57-.39-4.28-1.61-.91-1.51-2.1-.72-2.87A3.25,3.25,0,0,1,118.21,211.38Z"/><path class="cls-1" d="M129.53,209.47a11.82,11.82,0,0,1-1.14,3.68l-1.07,1.76a3.74,3.74,0,0,1-1.65,1.33,6,6,0,0,0,.61-2.89c0-1.75-.35-3.16-.84-3.16s-.93,1.37-1,3.12a5.32,5.32,0,0,0,.51,3,1.64,1.64,0,0,1-.54-.18c-1.8-.94-2.91-4.05-3.06-5.83-.18-2,.55-3.23,1.42-3.59s1.92.15,2.51,1.67c.19-1.67,1.29-2.16,2.32-1.83A2.89,2.89,0,0,1,129.53,209.47Z"/><path class="cls-1" d="M127.49,219.17a1.92,1.92,0,0,0-.69-2.83,2.63,2.63,0,0,0-1.71-.28,2.31,2.31,0,0,0-1.47.83,1.89,1.89,0,0,0,.59,2.85A2.51,2.51,0,0,0,127.49,219.17Z"/><path class="cls-1" d="M110,214.87a11.4,11.4,0,0,0-1.75-.43c-.37-.07-.77-.12-1.19-.18s-.83-.13-1.26-.18l-2.25-.07a4.56,4.56,0,0,0-2.11.53,6,6,0,0,1,1.33.33,13.23,13.23,0,0,1,1.8.79,11.61,11.61,0,0,1,2.12,1.39c.51.41.77.76.65,1s-.6.24-1.27.08a12,12,0,0,1-2.42-1,10.2,10.2,0,0,1-1.75-1.11,3.44,3.44,0,0,1-.9-1,1.31,1.31,0,0,0-.12.5,3.55,3.55,0,0,0,.35,1.53,7.13,7.13,0,0,0,1,1.62,13.34,13.34,0,0,0,2.76,2.61,5.57,5.57,0,0,0,.72.44,7,7,0,0,0,.69.31,5.68,5.68,0,0,0,1.27.33,2.78,2.78,0,0,0,1.86-.3c.87-.56.87-1.75-.39-3a2.73,2.73,0,0,0,2.15.07,1.62,1.62,0,0,0,.86-1.27,2.52,2.52,0,0,0-.44-1.67A3.54,3.54,0,0,0,110,214.87Z"/><path class="cls-1" d="M104,205.36a14.54,14.54,0,0,0-2.12,3.2l-.75,1.88a3.19,3.19,0,0,0,0,2,6.45,6.45,0,0,1,2-2.21c1.4-1.11,2.76-1.8,3.1-1.44s-.46,1.59-1.86,2.75a8.87,8.87,0,0,1-1.59,1.07,3.33,3.33,0,0,1-1.23.39,1.73,1.73,0,0,0,.5.29,3,3,0,0,0,.77.21,4.34,4.34,0,0,0,.89,0,9.87,9.87,0,0,0,1.91-.27,13.53,13.53,0,0,0,1.83-.59,10.06,10.06,0,0,0,1.45-.79c1.74-1.16,2.16-2.5,1.82-3.39a1.52,1.52,0,0,0-1-.93,3.39,3.39,0,0,0-1.94.17c1.14-1.24.7-2.38-.22-2.93A3,3,0,0,0,104,205.36Z"/><path class="cls-1" d="M92.84,206.36a13,13,0,0,0,2.36,3.3l1.68,1.42a4,4,0,0,0,2,.83,6.47,6.47,0,0,1-1.64-2.64c-.65-1.68-.73-3.14-.26-3.28s1.31,1.08,2,2.77a6,6,0,0,1,.62,3,1.5,1.5,0,0,0,.44-.32c1.28-1.36,1.23-4.67.87-6.42-.41-2-1.38-3-2.31-3.09a1.53,1.53,0,0,0-1.29.5,2.78,2.78,0,0,0-.69,1.76c-.65-1.6-1.84-1.75-2.77-1.17A2.68,2.68,0,0,0,92.84,206.36Z"/><path class="cls-1" d="M90,217a10.36,10.36,0,0,0,1.83-.19,17.23,17.23,0,0,0,2.4-.69l2-.94a3,3,0,0,0,1.39-1.46,7.58,7.58,0,0,1-3.22.43c-.5,0-1-.06-1.42-.12a10.81,10.81,0,0,1-1.15-.28c-.65-.21-1.06-.46-1.06-.7s.4-.43,1-.53a7.19,7.19,0,0,1,1.13-.1h1.38a7.5,7.5,0,0,1,3.34.65,1.42,1.42,0,0,0-.2-.5,6.79,6.79,0,0,0-2.86-2.16,15.09,15.09,0,0,0-3.49-1.31,6.65,6.65,0,0,0-2.65-.12,2.09,2.09,0,0,0-1.41.87c-.5.8,0,2,1.65,2.81-1.91-.09-2.5,1-2.14,2.07A3.66,3.66,0,0,0,90,217Z"/><path class="cls-1" d="M101.91,223a12.7,12.7,0,0,0-.55-3.87l-.37-1-.35-1a4.1,4.1,0,0,0-1.33-1.71,5.87,5.87,0,0,1-.14,3c-.43,1.69-1.23,2.95-1.79,2.8s-.64-1.63-.18-3.32a5.55,5.55,0,0,1,1.41-2.7,1.89,1.89,0,0,0-.58,0,6.3,6.3,0,0,0-3,1.69,11.3,11.3,0,0,0-2.15,2.66c-1,1.77-.61,3.22.31,3.93a2.29,2.29,0,0,0,1.67.47,3.11,3.11,0,0,0,1.82-1,2.13,2.13,0,0,0,2.34,2.5,3.13,3.13,0,0,0,1.91-.61A2.4,2.4,0,0,0,101.91,223Z"/><path class="cls-1" d="M101.82,213a1.87,1.87,0,0,1-1.35,2.56,2.51,2.51,0,0,1-3-1.44,1.92,1.92,0,0,1,1.44-2.52A2.43,2.43,0,0,1,101.82,213Z"/><path class="cls-1" d="M84.17,209.57a11.38,11.38,0,0,1-1.71-.74c-.35-.18-.72-.38-1.09-.6l-.56-.34-.55-.39L78.52,206a3.77,3.77,0,0,1-1.13-1.86,7.71,7.71,0,0,0,3,1.36,13.46,13.46,0,0,0,1.33.29,6.49,6.49,0,0,0,1.13.06c.64,0,1.06-.15,1.1-.38s-.31-.53-.9-.81a13.16,13.16,0,0,0-2.33-.86,8,8,0,0,0-3.29-.33,1.27,1.27,0,0,1,.28-.43,3.72,3.72,0,0,1,1.31-.79,9.57,9.57,0,0,1,1.79-.51,14.12,14.12,0,0,1,3.5-.21c2.11.11,3.29,1,3.59,1.92a1.4,1.4,0,0,1-.25,1.35,2.68,2.68,0,0,1-1.73.87,2.75,2.75,0,0,1,1.68,1.14,1.59,1.59,0,0,1,0,1.5,2.48,2.48,0,0,1-1.28,1.18A3.15,3.15,0,0,1,84.17,209.57Z"/><path class="cls-1" d="M72.53,212.33a11,11,0,0,1,.74-3.87l.87-1.83a3.13,3.13,0,0,1,1.48-1.33,5.87,5.87,0,0,0-.18,3c.27,1.82,1,3.33,1.54,3.33s.69-1.51.4-3.33a7.68,7.68,0,0,0-1-3.1,1.61,1.61,0,0,1,.55.18A7.5,7.5,0,0,1,79.56,208a18.13,18.13,0,0,1,1.82,3.25c.79,2,.42,3.42-.46,3.89s-2.28,0-3.34-1.52c.22,1.77-1,2.32-2.26,1.94A3.85,3.85,0,0,1,72.53,212.33Z"/><path class="cls-1" d="M65.21,201.72a10.13,10.13,0,0,1,1.8.08c.37,0,.78.09,1.19.16s.86.13,1.29.22l2.22.59a6.23,6.23,0,0,1,1.13.53,3.36,3.36,0,0,1,.85.63,8.38,8.38,0,0,0-3.2.22c-1.82.41-3.18,1.11-3,1.61s1.89.6,3.7.18a5.5,5.5,0,0,0,2.83-1.39,1.6,1.6,0,0,1,.06.54c-.14,1.89-2.71,4-4.49,4.74a5.49,5.49,0,0,1-1.42.41,4.35,4.35,0,0,1-1.25,0,3.23,3.23,0,0,1-1.82-.85c-.84-.84-.82-2.08.53-3a2.41,2.41,0,0,1-2.9-2.16A2.44,2.44,0,0,1,65.21,201.72Z"/><path class="cls-1" d="M73,193.86a12.4,12.4,0,0,1,.65,1.57,21.24,21.24,0,0,1,.66,2.23l.33,2.09a3.53,3.53,0,0,1-.33,2,8.08,8.08,0,0,0-1.52-2.83c-1.17-1.5-2.33-2.62-2.75-2.37-.21.12-.17.55,0,1.15a8.33,8.33,0,0,0,1.24,2.15,7.52,7.52,0,0,0,2.49,2.34,1.37,1.37,0,0,1-.51.14,7,7,0,0,1-3.5-1.11A10.61,10.61,0,0,1,68.06,200a13.86,13.86,0,0,1-1.33-1.22,7.14,7.14,0,0,1-.92-1.23,4.42,4.42,0,0,1-.45-1.13,2.06,2.06,0,0,1,.18-1.65c.54-.79,1.76-.85,3.17.22-.87-1.63-.12-2.6,1-2.8a2.47,2.47,0,0,1,.86,0,3.07,3.07,0,0,1,.91.24A3.16,3.16,0,0,1,73,193.86Z"/><path class="cls-1" d="M83.52,198.36a12.57,12.57,0,0,1-3,2.5l-.93.47-.93.44a3.6,3.6,0,0,1-2.09.19,5.81,5.81,0,0,0,2.08-2.08c1-1.46,1.42-2.86,1-3.13s-1.54.66-2.54,2.1A5.45,5.45,0,0,0,76,201.63a1.68,1.68,0,0,1-.36-.43,5.31,5.31,0,0,1-.4-3.35,10.7,10.7,0,0,1,1-3.23c.93-1.77,2.21-2.4,3.12-2.22s1.54,1.15,1.22,2.73c1.07-1.31,2.23-1.09,2.91-.24A2.8,2.8,0,0,1,83.52,198.36Z"/><path class="cls-1" d="M76.54,205.44a1.94,1.94,0,0,0,1-2.76,2.48,2.48,0,0,0-3-1.25,1.87,1.87,0,0,0-1,2.71A2.59,2.59,0,0,0,76.54,205.44Z"/><path class="cls-1" d="M64.17,192.35a18.45,18.45,0,0,0-3.1-2.94l-1.84-1.29a4.22,4.22,0,0,0-2.07-.68,8.49,8.49,0,0,1,2,2.63c.24.43.45.85.62,1.24a9.78,9.78,0,0,1,.43,1.05c.2.63.22,1.07,0,1.18-.42.21-1.67-1-2.62-2.74a6.53,6.53,0,0,1-1.1-3.19,1.39,1.39,0,0,0-.38.35,5.23,5.23,0,0,0-.55,3.36,12.4,12.4,0,0,0,.89,3.7c1,2.11,2.36,3.14,3.39,3.12a1.28,1.28,0,0,0,1.18-.73,3,3,0,0,0,.11-2,3.06,3.06,0,0,0,.9.87,2.17,2.17,0,0,0,.89.33,1.57,1.57,0,0,0,1.4-.6A3,3,0,0,0,64.17,192.35Z"/><path class="cls-1" d="M64.3,181.12a13.84,13.84,0,0,0-3.51,1.54l-1.64,1.17A3.22,3.22,0,0,0,58,185.49a6.73,6.73,0,0,1,2.87-.79c1.8-.2,3.29,0,3.38.47s-1.25,1.09-3,1.3a5.87,5.87,0,0,1-3.18-.29,1.49,1.49,0,0,0,.26.52,6.81,6.81,0,0,0,3,1.9,9.89,9.89,0,0,0,1.87.48,11.58,11.58,0,0,0,1.64.14c2.07,0,3.16-.93,3.36-1.86s-.48-1.92-2.1-2.25a2.1,2.1,0,0,0,1.5-1.1,1.55,1.55,0,0,0,.11-.73,2.06,2.06,0,0,0-.21-.76A2.87,2.87,0,0,0,64.3,181.12Z"/><path class="cls-1" d="M54.35,175.88a8.94,8.94,0,0,0-.08,1.7c0,.36,0,.75.08,1.15s.12.8.21,1.21l.63,2.11a6.71,6.71,0,0,0,.56,1.07,3.07,3.07,0,0,0,.72.72,3.57,3.57,0,0,1-.19-1.27,9.67,9.67,0,0,1,.22-1.83c.37-1.77,1.09-3.05,1.56-2.92s.5,1.64.15,3.41a6,6,0,0,1-1.09,2.86,1.43,1.43,0,0,0,.54,0c1.8-.45,3.56-3.27,4.2-4.93.69-1.85.45-3.26-.28-3.85s-1.91-.45-2.88.82a2.32,2.32,0,0,0-.33-1.86,1.72,1.72,0,0,0-1.38-.61A2.66,2.66,0,0,0,54.35,175.88Z"/><path class="cls-1" d="M46.19,183.34a13.56,13.56,0,0,0,4.05,1.55l2.14.27a3.12,3.12,0,0,0,2-.48,7,7,0,0,1-2.94-1.4c-1.66-1.12-2.72-2.46-2.46-2.87.13-.2.56-.14,1.16.12a8.21,8.21,0,0,1,1,.53,12.28,12.28,0,0,1,1.18.73,8,8,0,0,1,2.46,2.36,2,2,0,0,0,.09-.53,7,7,0,0,0-1.22-3.37c-.37-.56-.74-1.14-1.12-1.66a13.44,13.44,0,0,0-1.12-1.32,6.79,6.79,0,0,0-1.15-1,4.24,4.24,0,0,0-1-.57,2.09,2.09,0,0,0-1.66,0,1.39,1.39,0,0,0-.75,1.18,2.75,2.75,0,0,0,.11,1,3.6,3.6,0,0,0,.52,1.12,2.43,2.43,0,0,0-1.94-.53,1.48,1.48,0,0,0-1,1.13A3.72,3.72,0,0,0,46.19,183.34Z"/><path class="cls-1" d="M53,194.77a13.05,13.05,0,0,0,1.64-3.56l.22-1c.11-.51.24-1,.24-1a4.06,4.06,0,0,0-.18-2.16,6,6,0,0,1-1.72,2.4c-1.28,1.2-2.62,1.82-3,1.38s.35-1.72,1.65-2.88a5.32,5.32,0,0,1,2.64-1.51,1.73,1.73,0,0,0-.49-.32,4.59,4.59,0,0,0-1.63-.31,8.22,8.22,0,0,0-1.83.13A10.8,10.8,0,0,0,47.28,187c-1.76,1-2.25,2.38-1.87,3.48a2.35,2.35,0,0,0,.44.75,2.26,2.26,0,0,0,.73.52,3,3,0,0,0,2.09.11,2.13,2.13,0,0,0,.6,3.38A2.8,2.8,0,0,0,53,194.77Z"/><path class="cls-1" d="M58.29,186.36a1.88,1.88,0,0,1-2.52,1.42A2.56,2.56,0,0,1,54.06,185a1.94,1.94,0,0,1,2.59-1.35A2.43,2.43,0,0,1,58.29,186.36Z"/><path class="cls-1" d="M45.3,173.91a17.8,17.8,0,0,1-2.17-3.84l-.65-2.22a4,4,0,0,1,.05-2.17,10.27,10.27,0,0,0,3.7,4.39c.55.33,1,.44,1.13.27s0-.61-.31-1.17c-.17-.28-.4-.59-.65-.92s-.54-.69-.86-1.05a7.43,7.43,0,0,0-2.6-2,1.3,1.3,0,0,1,.46-.21,6.05,6.05,0,0,1,3.32.57,14.89,14.89,0,0,1,1.7.82c.52.3,1,.61,1.38.89,1.71,1.23,2.2,2.62,2,3.55s-1.31,1.46-2.88.81c1.24,1.36.93,2.55,0,3.13A2.88,2.88,0,0,1,45.3,173.91Z"/><path class="cls-1" d="M34,170a10.84,10.84,0,0,1,2.7-2.86L38.45,166a3,3,0,0,1,2-.32,5.63,5.63,0,0,0-1.77,2.45c-.76,1.68-1,3.34-.52,3.63s1.39-.89,2.14-2.59A7,7,0,0,0,41,166a2.41,2.41,0,0,1,.38.44,7.46,7.46,0,0,1,.86,3.61,16.36,16.36,0,0,1-.21,3.72c-.44,2.14-1.5,3.11-2.49,3s-1.92-1.21-2-3.07c-.76,1.6-2.07,1.43-3,.41A3.89,3.89,0,0,1,34,170Z"/><path class="cls-1" d="M33.58,157.07a21.26,21.26,0,0,1,3.36,2.7l1.54,1.7a5.41,5.41,0,0,1,1.05,2A8.6,8.6,0,0,0,36.71,162c-1.74-.64-3.26-.79-3.36-.25-.05.26.26.64.81,1a8.41,8.41,0,0,0,2.21,1.1,5.61,5.61,0,0,0,3.13.37,1.38,1.38,0,0,1-.25.48c-1.14,1.52-4.44,1.92-6.33,1.57a5,5,0,0,1-2.47-1.1,3.16,3.16,0,0,1-1.07-1.7c-.25-1.17.45-2.2,2.09-2.26a3.59,3.59,0,0,1-1-.75,2.32,2.32,0,0,1-.49-.89,2.21,2.21,0,0,1,.22-1.75A2.43,2.43,0,0,1,33.58,157.07Z"/><path class="cls-1" d="M44.34,154.64a6.25,6.25,0,0,1-.1.73c-.05.28-.11.6-.19.94a18.17,18.17,0,0,1-.65,2.24l-.86,1.93A3.34,3.34,0,0,1,41.2,162a8.92,8.92,0,0,0,.24-3.2,11.1,11.1,0,0,0-.41-2.44c-.17-.63-.39-1-.63-1-.47,0-.86,1.54-.69,3.48a6.92,6.92,0,0,0,.84,3.31,1.55,1.55,0,0,1-.52-.16c-1.73-.92-3.3-4.44-3.59-6.49-.41-2.26.29-3.65,1.16-4a1.38,1.38,0,0,1,1.37.18,2.67,2.67,0,0,1,.63.66,4.62,4.62,0,0,1,.56,1,2.08,2.08,0,0,1,.81-1.75,1.6,1.6,0,0,1,1.48-.08A3.09,3.09,0,0,1,44.34,154.64Z"/><path class="cls-1" d="M50.81,164.12a12.17,12.17,0,0,1-3.84.5l-2.07-.22a3.66,3.66,0,0,1-1.85-1,6.09,6.09,0,0,0,2.87-.64c1.6-.71,2.74-1.64,2.54-2.1s-1.65-.27-3.27.4a5.36,5.36,0,0,0-2.5,1.7,2,2,0,0,1-.07-.56c.05-2,2.5-4.33,4.05-5.21,1.74-1,3.15-.83,3.82-.18s.69,1.79-.44,3a2.12,2.12,0,0,1,1.85.09,1.83,1.83,0,0,1,.74,1.27A2.83,2.83,0,0,1,50.81,164.12Z"/><path class="cls-1" d="M41.11,166.32a1.92,1.92,0,0,0,2.29-1.8,2.47,2.47,0,0,0-1.82-2.67,1.88,1.88,0,0,0-2.34,1.72A2.57,2.57,0,0,0,41.11,166.32Z"/><path class="cls-1" d="M37.77,148.62a19.08,19.08,0,0,0-1-4.15l-.14-.32a7.25,7.25,0,0,1-.3-.71l-.41-1.05a4,4,0,0,0-1.36-1.69A8.13,8.13,0,0,1,34.8,144c-.08,1.95-.49,3.53-1,3.48-.24,0-.44-.45-.58-1.13a9,9,0,0,1-.15-2.59,7,7,0,0,1,.82-3.28,1.34,1.34,0,0,0-.51.09,5.47,5.47,0,0,0-2.29,2.53A14.47,14.47,0,0,0,30.3,145a10.37,10.37,0,0,0-.42,1.74,6.92,6.92,0,0,0,.1,2.89A2.57,2.57,0,0,0,31,151.16c.89.55,2,.07,2.54-1.59C34,153.51,38.08,151.91,37.77,148.62Z"/><path class="cls-1" d="M44,139.26a14.83,14.83,0,0,0-3.83-.61l-2,.09a3.27,3.27,0,0,0-1.84.8,6.73,6.73,0,0,1,2.87.88c1.61.81,2.74,1.77,2.55,2.23s-1.63.24-3.24-.56a6.12,6.12,0,0,1-2.51-2,2.05,2.05,0,0,0,0,.57A6.6,6.6,0,0,0,37.42,144,12.07,12.07,0,0,0,40,146.36c1.73,1.11,3.17.93,3.82.26s.66-1.87-.51-3c1.63.52,2.47-.35,2.55-1.41A2.84,2.84,0,0,0,44,139.26Z"/><path class="cls-1" d="M38.42,129.47a12.22,12.22,0,0,0-2,3.52l-.33,1-.22.73-.09.33a4.44,4.44,0,0,0,.12,2.19,6.69,6.69,0,0,1,1.68-2.58c1.28-1.29,2.6-2,2.91-1.6.16.18,0,.59-.28,1.12a9.9,9.9,0,0,1-1.41,1.82,6.13,6.13,0,0,1-2.49,1.81,1.24,1.24,0,0,0,.46.27c1.75.6,4.77-.81,6.23-1.87,1.63-1.18,2.06-2.48,1.83-3.38S43.51,131.47,42,132c1.15-1.26.75-2.4-.12-3A2.7,2.7,0,0,0,38.42,129.47Z"/><path class="cls-1" d="M27.54,131.31a14.89,14.89,0,0,0,2.55,3.49l.25.22.57.49.86.69a3.15,3.15,0,0,0,1.92.65,4.19,4.19,0,0,1-.86-1c-.15-.24-.32-.51-.47-.8s-.28-.62-.41-1c-.72-1.84-1-3.55-.53-3.75s1.37,1.15,2.08,3a15,15,0,0,1,.63,1.95,4,4,0,0,1,.17,1.36,1.35,1.35,0,0,0,.36-.39,4.5,4.5,0,0,0,.56-1.55,10,10,0,0,0,.24-1.94,19.51,19.51,0,0,0-.28-3.72c-.82-4.33-4.15-4.48-4.21-.72-.75-1.77-1.95-1.87-2.79-1.08a3.24,3.24,0,0,0-.91,1.73A3.8,3.8,0,0,0,27.54,131.31Z"/><path class="cls-1" d="M27.05,144.61a13,13,0,0,0,3.33-2.12l1.5-1.48a4.32,4.32,0,0,0,1-1.91,6,6,0,0,1-2.75,1.09c-1.73.31-3.19.11-3.27-.47s1.24-1.26,3-1.54a5.36,5.36,0,0,1,3,.17,1.64,1.64,0,0,0-.23-.53,6.21,6.21,0,0,0-2.83-2,11.13,11.13,0,0,0-3.3-.86,4,4,0,0,0-2.38.48,2.45,2.45,0,0,0-.71.64,2,2,0,0,0-.36.8,2.57,2.57,0,0,0,2,2.92,2.09,2.09,0,0,0-1.5,1.3,2.6,2.6,0,0,0,.2,1.86A2.77,2.77,0,0,0,27.05,144.61Z"/><path class="cls-1" d="M36.09,140.4a1.91,1.91,0,0,1-2.91-.17,2.53,2.53,0,0,1,.12-3.3,1.94,1.94,0,0,1,2.9.27,2.42,2.42,0,0,1,.52,1.64A2.47,2.47,0,0,1,36.09,140.4Z"/><path class="cls-1" d="M31.92,122.9a12.12,12.12,0,0,1-.07-1.86,18.64,18.64,0,0,1,.33-2.54l.61-2.22a3.94,3.94,0,0,1,1.26-1.8,4.82,4.82,0,0,0-.2,1.35,10.33,10.33,0,0,0,.2,2c.36,1.93,1,3.35,1.49,3.22s.54-1.73.18-3.62a10.34,10.34,0,0,0-.24-1.06,9,9,0,0,0-.24-.9,3.24,3.24,0,0,0-.57-1.17,1.29,1.29,0,0,1,.51.07,5.89,5.89,0,0,1,2.44,2.27,13.91,13.91,0,0,1,1.7,3.11,6,6,0,0,1,.34,1.36,4.66,4.66,0,0,1,.07,1.15,2.28,2.28,0,0,1-.66,1.55c-.72.65-1.89.52-2.86-.88C36.8,126.5,32.44,126.32,31.92,122.9Z"/><path class="cls-1" d="M24.56,113.48a11.25,11.25,0,0,1,3.82-1l2,0a3.26,3.26,0,0,1,1.84.79,5.91,5.91,0,0,0-2.83,1.1c-1.6,1-2.62,2.29-2.4,2.78s1.66,0,3.18-1A7.47,7.47,0,0,0,32.6,114a1.78,1.78,0,0,1,.07.58,5.36,5.36,0,0,1-.38,1.7,10.74,10.74,0,0,1-.84,1.8,16.44,16.44,0,0,1-2.22,3c-1.49,1.57-2.9,1.81-3.7,1.2a1.91,1.91,0,0,1-.69-1.46,3.92,3.92,0,0,1,.69-2.2c-1.54.94-2.49.09-2.71-1.24a4.18,4.18,0,0,1,.24-2.16A3.44,3.44,0,0,1,24.56,113.48Z"/><path class="cls-1" d="M31.14,102.4a17.72,17.72,0,0,1,1.35,4.08l.41,2.28a4.62,4.62,0,0,1-.25,2.27,7.51,7.51,0,0,0-1.51-2.81c-1.15-1.49-2.36-2.43-2.72-2s.26,2,1.41,3.44a9.56,9.56,0,0,0,1.32,1.4,2.8,2.8,0,0,0,1.09.6,1.83,1.83,0,0,1-.47.28c-1.75.66-4.79-.79-6.17-2.1a4.18,4.18,0,0,1-1.47-4.27,2.16,2.16,0,0,1,.43-.72,1.61,1.61,0,0,1,.69-.4,2.33,2.33,0,0,1,1.86.34c-.9-1.64-.28-3,.75-3.54A2.44,2.44,0,0,1,31.14,102.4Z"/><path class="cls-1" d="M41.52,106.17A19.67,19.67,0,0,1,38.6,109l-1.74,1.17a3.46,3.46,0,0,1-2,.53,7.78,7.78,0,0,0,1.92-2.56,15.74,15.74,0,0,0,1-2.27c.18-.63.2-1.08,0-1.22-.4-.27-1.51.84-2.49,2.55a7.69,7.69,0,0,0-1.05,3.24A1.4,1.4,0,0,1,34,110a6.83,6.83,0,0,1-.47-3.64,15.3,15.3,0,0,1,.92-3.77c1.9-4.22,5.1-3.19,4.28.22,1.14-1.46,2.31-1.19,3-.3a2.88,2.88,0,0,1,.51,1.7A3.12,3.12,0,0,1,41.52,106.17Z"/><path class="cls-1" d="M41.82,117.64a12.18,12.18,0,0,1-3.5-1.64l-1.59-1.31a3.72,3.72,0,0,1-1.06-1.82,6,6,0,0,0,2.77,1c1.73.27,3.18.09,3.25-.39s-1.26-1.12-3-1.44a5.51,5.51,0,0,0-3,.08,1.68,1.68,0,0,1,.24-.51c1.21-1.63,4.45-2.3,6.24-2.19,2,.11,3.11,1,3.34,1.91s-.46,1.87-2,2.24c1.64.44,1.94,1.59,1.47,2.55a3,3,0,0,1-1.22,1.23A2.85,2.85,0,0,1,41.82,117.64Z"/><path class="cls-1" d="M32.5,114.25a1.92,1.92,0,0,0,2.9-.27,2.56,2.56,0,0,0-.11-3.23,1.89,1.89,0,0,0-2.91.18A2.54,2.54,0,0,0,32.5,114.25Z"/><path class="cls-1" d="M39.24,97.56a11,11,0,0,0,.68-1.66c.25-.72.47-1.55.7-2.38l.4-2.21a4.5,4.5,0,0,0-.23-2.17,9.21,9.21,0,0,1-1.55,2.94c-1.19,1.58-2.35,2.7-2.73,2.41-.19-.15-.13-.63.1-1.28A11.77,11.77,0,0,1,37.92,91a12.76,12.76,0,0,1,1.35-1.58,3.32,3.32,0,0,1,1.1-.74,1.34,1.34,0,0,0-.47-.2,5.25,5.25,0,0,0-3.3.88,13.55,13.55,0,0,0-3,2.35c-1.53,1.76-1.84,3.46-1.42,4.39s1.6,1.11,3,0a3.76,3.76,0,0,0-.44,1.18,2,2,0,0,0,.08.94,1.57,1.57,0,0,0,1.12,1,2.53,2.53,0,0,0,1.73-.19,3,3,0,0,0,.82-.58A3.54,3.54,0,0,0,39.24,97.56Z"/><path class="cls-1" d="M49.51,93a15.21,15.21,0,0,0-2.86-2.56l-1.75-1a3.25,3.25,0,0,0-2-.32,6.38,6.38,0,0,1,1.9,2.28c.93,1.55,1.39,3,1,3.26S44.3,94,43.36,92.45a9.38,9.38,0,0,1-.84-1.73,3,3,0,0,1-.21-1.27,1.63,1.63,0,0,0-.37.44,6.57,6.57,0,0,0-.47,3.55,10.15,10.15,0,0,0,.89,3.44c.9,1.88,2.17,2.49,3.1,2.29s1.51-1.24,1.17-2.84c1.06,1.3,2.26,1,2.93.19A2.89,2.89,0,0,0,49.51,93Z"/><path class="cls-1" d="M50.13,81.8a8.55,8.55,0,0,0-1.57.63,12,12,0,0,0-2,1.24l-1.65,1.45A3.81,3.81,0,0,0,43.77,87a6.3,6.3,0,0,1,2.84-1.25c1.76-.4,3.22-.27,3.3.21s-1.27,1.15-3,1.56a6,6,0,0,1-3.06.18,1.38,1.38,0,0,0,.25.48c1.17,1.46,4.45,1.89,6.23,1.79,2-.13,3.15-.94,3.39-1.85s-.39-1.93-2-2.28c1.67-.43,2-1.57,1.55-2.58A2.68,2.68,0,0,0,50.13,81.8Z"/><path class="cls-1" d="M40,77.46a9.16,9.16,0,0,0-.07,1.85,18.66,18.66,0,0,0,.33,2.47l.64,2.07a3.1,3.1,0,0,0,1.25,1.58,7.48,7.48,0,0,1,0-3.25c.09-.49.2-1,.32-1.38a7.74,7.74,0,0,1,.43-1.09c.31-.62.62-1,.86-1s.36.46.37,1.11a15.25,15.25,0,0,1-.26,2.49,7.64,7.64,0,0,1-1.13,3.22,1.58,1.58,0,0,0,.53-.13,6.89,6.89,0,0,0,2.55-2.51,16.13,16.13,0,0,0,1.79-3.27,6.92,6.92,0,0,0,.5-2.61,2.08,2.08,0,0,0-.66-1.52c-.72-.61-2-.31-3,1.23.35-1.88-.59-2.6-1.74-2.41A3.66,3.66,0,0,0,40,77.46Z"/><path class="cls-1" d="M32.38,88.39a13,13,0,0,0,3.91,0l1-.23,1-.2a4.14,4.14,0,0,0,1.9-1.06,6.05,6.05,0,0,1-2.9-.57c-1.62-.67-2.74-1.63-2.51-2.17s1.71-.4,3.31.3a5.47,5.47,0,0,1,2.46,1.78,1.77,1.77,0,0,0,.08-.58,6.41,6.41,0,0,0-1.25-3.22,11,11,0,0,0-2.32-2.51c-1.61-1.21-3.1-1.06-3.94-.25a2.25,2.25,0,0,0-.69,1.59,3.09,3.09,0,0,0,.78,2,2.14,2.14,0,0,0-2.83,1.94A2.8,2.8,0,0,0,32.38,88.39Z"/><path class="cls-1" d="M42.25,89.73A1.89,1.89,0,0,1,39.9,88a2.55,2.55,0,0,1,1.85-2.73,1.83,1.83,0,0,1,1.54.36,2.1,2.1,0,0,1,.76,1.44A2.42,2.42,0,0,1,42.25,89.73Z"/><path class="cls-1" d="M48.19,72.75a16.39,16.39,0,0,1,2.61-3.57l1.74-1.51a3.8,3.8,0,0,1,2-.85,7.9,7.9,0,0,0-1.77,2.79,10.85,10.85,0,0,0-.48,1.28A8.31,8.31,0,0,0,52.07,72c-.08.64,0,1.07.22,1.14.47.14,1.33-1.21,2.11-3A7.7,7.7,0,0,0,55.19,67a1.41,1.41,0,0,1,.39.34,6.17,6.17,0,0,1,.85,3.25,14.17,14.17,0,0,1-.29,3.5c-.41,2.08-1.45,3.12-2.42,3.28a1.38,1.38,0,0,1-1.29-.44,2.68,2.68,0,0,1-.62-1.84,2.78,2.78,0,0,1-1.36,1.51A1.62,1.62,0,0,1,49,76.36a2.48,2.48,0,0,1-1-1.44A3.17,3.17,0,0,1,48.19,72.75Z"/><path class="cls-1" d="M47.11,60.84a11.12,11.12,0,0,1,3.74,1.28l1.68,1.13a3.17,3.17,0,0,1,1.11,1.65,5.84,5.84,0,0,0-3-.61c-1.84,0-3.43.51-3.51,1s1.39.9,3.24.88a7.59,7.59,0,0,0,3.22-.6,1.94,1.94,0,0,1-.26.52,7.27,7.27,0,0,1-2.91,2.28c-.31.16-.63.3-.94.44s-.61.27-.91.38a12.49,12.49,0,0,1-1.63.52c-2.13.5-3.45-.06-3.78-1s.3-2.25,2-3.08c-1.77,0-2.16-1.29-1.59-2.51A3.86,3.86,0,0,1,47.11,60.84Z"/><path class="cls-1" d="M58.66,55.11a10.86,10.86,0,0,1-.33,1.76c-.1.37-.21.76-.34,1.16s-.25.83-.39,1.25l-.9,2.11a7.07,7.07,0,0,1-.69,1,3.45,3.45,0,0,1-.74.74,4.45,4.45,0,0,0,.24-1.32,10.66,10.66,0,0,0,0-1.87c-.14-1.86-.64-3.3-1.17-3.17s-.86,1.78-.7,3.63a5.56,5.56,0,0,0,1,3,1.24,1.24,0,0,1-.54,0c-1.85-.4-3.58-3.25-4.06-5.11a6.63,6.63,0,0,1-.2-1.46A4.75,4.75,0,0,1,50,55.62a3.29,3.29,0,0,1,1.1-1.68c1-.71,2.19-.52,2.92,1a2.4,2.4,0,0,1,2.55-2.56A2.43,2.43,0,0,1,58.66,55.11Z"/><path class="cls-1" d="M65.34,63.89a12,12,0,0,1-1.65.42,20.4,20.4,0,0,1-2.3.34l-2.12,0a3.55,3.55,0,0,1-1.92-.61,8.25,8.25,0,0,0,3-1.1C62,62,63.28,61,63.1,60.58c-.09-.22-.52-.25-1.15-.11a6.63,6.63,0,0,0-1.08.32,9.13,9.13,0,0,0-1.22.6A7.44,7.44,0,0,0,57,63.52a1.29,1.29,0,0,1-.07-.53,7,7,0,0,1,1.6-3.3,11.47,11.47,0,0,1,1.41-1.53A13.38,13.38,0,0,1,61.33,57a6.55,6.55,0,0,1,1.34-.75A4.45,4.45,0,0,1,63.85,56a2,2,0,0,1,1.61.42c.71.64.59,1.85-.66,3.1,1.73-.64,2.59.24,2.64,1.33a2.86,2.86,0,0,1-.11.86,3,3,0,0,1-.37.87A3.12,3.12,0,0,1,65.34,63.89Z"/><path class="cls-1" d="M59.39,73.7a12,12,0,0,1-2.06-3.28l-.33-1c-.08-.25-.16-.49-.21-.68l-.1-.3a3.61,3.61,0,0,1,.11-2.09,5.83,5.83,0,0,0,1.77,2.35c1.3,1.16,2.62,1.81,3,1.45s-.44-1.62-1.71-2.82a5.47,5.47,0,0,0-2.59-1.57,2,2,0,0,1,.48-.3,3.65,3.65,0,0,1,1.58-.24,8.23,8.23,0,0,1,1.79.32A10.51,10.51,0,0,1,64.13,67c1.62,1.17,2.06,2.53,1.75,3.41s-1.35,1.36-2.87.81c1.14,1.26.75,2.37-.18,2.92A2.78,2.78,0,0,1,59.39,73.7Z"/><path class="cls-1" d="M53.37,65.79A1.92,1.92,0,0,0,56,67.13a2.48,2.48,0,0,0,1.66-2.77A1.87,1.87,0,0,0,55.09,63,2.58,2.58,0,0,0,53.37,65.79Z"/><path class="cls-1" d="M68.08,55.41a18.81,18.81,0,0,0,3.35-2.66L73,51.12a4.23,4.23,0,0,0,1-2A8.3,8.3,0,0,1,71,50.8c-.46.18-.91.31-1.32.44a7,7,0,0,1-1.1.27c-.64.11-1.08.07-1.16-.16-.15-.44,1.19-1.51,3.08-2.2a6.68,6.68,0,0,1,3.31-.64,1.27,1.27,0,0,0-.29-.42,5.23,5.23,0,0,0-3.24-1,12.43,12.43,0,0,0-3.79.36c-2.23.66-3.45,1.88-3.57,2.92s.74,1.79,2.52,1.66c-1.72,1-1.77,2.28-1,3.07A3,3,0,0,0,68.08,55.41Z"/><path class="cls-1" d="M79.18,57.13a14.9,14.9,0,0,0-1-3.7l-.93-1.79a3.23,3.23,0,0,0-1.49-1.34,6.69,6.69,0,0,1,.37,3c0,1.81-.45,3.25-.94,3.28s-.9-1.39-.85-3.19a6,6,0,0,1,.73-3.11,1.44,1.44,0,0,0-.54.18,6.77,6.77,0,0,0-2.32,2.73,9.76,9.76,0,0,0-.73,1.79,9.2,9.2,0,0,0-.37,1.6c-.28,2.06.46,3.25,1.36,3.59s2-.2,2.52-1.76A2.1,2.1,0,0,0,75.85,60a1.77,1.77,0,0,0,1.48.11A2.84,2.84,0,0,0,79.18,57.13Z"/><path class="cls-1" d="M85.77,48a11.91,11.91,0,0,0-4-.36L79.55,48a3.77,3.77,0,0,0-2,1,3.58,3.58,0,0,1,1.28,0,9.33,9.33,0,0,1,1.78.48c1.7.62,2.87,1.51,2.67,2s-1.71.26-3.4-.33a6,6,0,0,1-2.67-1.49,1.32,1.32,0,0,0-.05.53c.19,1.85,2.72,4,4.28,4.87,1.74.94,3.16.9,3.85.26s.72-1.82-.41-3a2.37,2.37,0,0,0,1.9-.07,1.74,1.74,0,0,0,.8-1.27A2.68,2.68,0,0,0,85.77,48Z"/><path class="cls-1" d="M79.55,38.88a13.76,13.76,0,0,0-2.1,3.79l-.59,2.09a3.15,3.15,0,0,0,.21,2,6.86,6.86,0,0,1,1.8-2.71,9.71,9.71,0,0,1,2-1.69c.59-.36,1-.5,1.23-.34s.06.58-.28,1.13a9.65,9.65,0,0,1-.66.91,11.82,11.82,0,0,1-.9,1.06,8.1,8.1,0,0,1-2.68,2.1,1.28,1.28,0,0,0,.5.16,6.81,6.81,0,0,0,3.51-.72c.31-.13.62-.28.92-.43s.6-.29.88-.44a12.23,12.23,0,0,0,1.47-.92,6.5,6.5,0,0,0,1.11-1,4.64,4.64,0,0,0,.71-.94,2.11,2.11,0,0,0,.28-1.63,1.4,1.4,0,0,0-1.07-.91,3.34,3.34,0,0,0-2.13.33,2.47,2.47,0,0,0,.8-1.85,1.5,1.5,0,0,0-1-1.14A3.75,3.75,0,0,0,79.55,38.88Z"/><path class="cls-1" d="M67.27,44a13,13,0,0,0,3.29,2.13l1,.37.67.25.31.12a4.17,4.17,0,0,0,2.18.14,5.89,5.89,0,0,1-2.14-2c-1-1.43-1.43-2.85-.95-3.17s1.67.59,2.63,2a5.43,5.43,0,0,1,1.12,2.83,1.63,1.63,0,0,0,.38-.44,4.42,4.42,0,0,0,.54-1.57,8.44,8.44,0,0,0,.13-1.83,10.83,10.83,0,0,0-.59-3.36c-.7-1.88-2-2.56-3.19-2.34a2.14,2.14,0,0,0-1.42,1,3,3,0,0,0-.41,2,2.12,2.12,0,0,0-3.42.11A2.8,2.8,0,0,0,67.27,44Z"/><path class="cls-1" d="M74.84,50.44a1.85,1.85,0,0,1-1.14-1.08,1.92,1.92,0,0,1,.1-1.63,2.56,2.56,0,0,1,3-1.28,1.93,1.93,0,0,1,1,2.75A2.44,2.44,0,0,1,74.84,50.44Z"/><path class="cls-1" d="M89,39.34a18.06,18.06,0,0,1,4.13-1.59l.35-.06.79-.1,1.14-.16a4,4,0,0,1,2.15.37,8.19,8.19,0,0,0-3,1.37c-.2.14-.39.27-.57.41s-.35.29-.51.43a8.16,8.16,0,0,0-.78.81c-.41.5-.58.89-.43,1.08s.6.11,1.2-.14a8.93,8.93,0,0,0,1-.52c.36-.2.76-.43,1.15-.7A7.35,7.35,0,0,0,98,38.27a1.47,1.47,0,0,1,.14.49,6,6,0,0,1-1,3.2A16.59,16.59,0,0,1,95,44.76a5.42,5.42,0,0,1-2.12,1.43,2.81,2.81,0,0,1-.92.15,1.69,1.69,0,0,1-.76-.13c-.89-.36-1.25-1.49-.39-3C87.8,45.33,86.15,41.3,89,39.34Z"/><path class="cls-1" d="M94.55,28.75a8.26,8.26,0,0,1,1.17,1.19A13.53,13.53,0,0,1,97,31.83l.81,1.86a3.09,3.09,0,0,1,0,2,3.15,3.15,0,0,0-.73-1,9.5,9.5,0,0,0-1.43-1.11c-1.56-1-3.18-1.44-3.53-1s.69,1.51,2.26,2.5a6.87,6.87,0,0,0,3,1.22,2,2,0,0,1-.49.32,7.33,7.33,0,0,1-3.7.32,15.33,15.33,0,0,1-3.65-.74c-2.06-.74-2.87-1.92-2.64-2.89s1.48-1.73,3.34-1.51c-1.48-1-1.12-2.24,0-3A3.93,3.93,0,0,1,94.55,28.75Z"/><path class="cls-1" d="M107.37,30.17a11.39,11.39,0,0,1-1.24,1.29c-.56.53-1.22,1.11-1.91,1.65l-1.91,1.27a5,5,0,0,1-2.17.75,4,4,0,0,0,.93-1,16.19,16.19,0,0,0,1-1.61c.88-1.63,1.24-3.1.73-3.28-.25-.09-.68.17-1.15.65a7.57,7.57,0,0,0-.72.87,11.64,11.64,0,0,0-.68,1.17,5.51,5.51,0,0,0-.82,3,1.5,1.5,0,0,1-.44-.32c-1.34-1.35-1.26-4.67-.64-6.48a5.35,5.35,0,0,1,1.43-2.31,3.27,3.27,0,0,1,1.85-.8c1.19-.07,2.12.76,1.94,2.39a2.78,2.78,0,0,1,1.83-1.25,2.2,2.2,0,0,1,1.7.47A2.43,2.43,0,0,1,107.37,30.17Z"/><path class="cls-1" d="M108.22,41.16a16.7,16.7,0,0,1-3.72-1.49l-.9-.57-.62-.39-.28-.17A3.2,3.2,0,0,1,101.42,37a3.67,3.67,0,0,0,1.22.4,11.91,11.91,0,0,0,1.9.29,11,11,0,0,0,2.48-.05c.64-.11,1.07-.24,1.12-.48s-.31-.5-.92-.73A9.77,9.77,0,0,0,104.8,36a13.09,13.09,0,0,0-2.08,0,3.41,3.41,0,0,0-1.32.36,1.44,1.44,0,0,1,.23-.49,4.19,4.19,0,0,1,.54-.59,7.33,7.33,0,0,1,.74-.5,11.22,11.22,0,0,1,1.85-.82,14,14,0,0,1,2-.54,12.58,12.58,0,0,1,1.8-.17,5.76,5.76,0,0,1,2.67.47A2.05,2.05,0,0,1,112.37,35c.24.92-.51,1.86-2.23,2.27,1.79.39,2,1.56,1.49,2.54A3.08,3.08,0,0,1,108.22,41.16Z"/><path class="cls-1" d="M97.92,46.2a12.19,12.19,0,0,1,0-3.86l.52-2a3.38,3.38,0,0,1,1.22-1.71,5.69,5.69,0,0,0,.22,2.93c.46,1.68,1.23,3,1.7,2.82s.51-1.59.08-3.29a5.47,5.47,0,0,0-1.32-2.72,1.77,1.77,0,0,1,.56,0,5.35,5.35,0,0,1,2.78,1.87,10.61,10.61,0,0,1,1.79,2.88c.73,1.87.37,3.24-.37,3.81s-1.87.43-2.85-.86a2.14,2.14,0,0,1-.35,1.81,1.49,1.49,0,0,1-.61.42,1.9,1.9,0,0,1-.76.14A2.82,2.82,0,0,1,97.92,46.2Z"/><path class="cls-1" d="M97.14,36.29a1.9,1.9,0,0,0,1.44,2.52,2.48,2.48,0,0,0,2.91-1.41,1.88,1.88,0,0,0-1.37-2.56A2.52,2.52,0,0,0,97.14,36.29Z"/><path class="cls-1" d="M115.12,35.54a22.58,22.58,0,0,0,4.26-.41l1.08-.3.75-.19.35-.07a4.08,4.08,0,0,0,1.87-1.09,4.66,4.66,0,0,1-1.36.06c-.58,0-1.25-.17-2-.28-1.92-.36-3.43-1-3.31-1.48s1.82-.55,3.78-.2a7.1,7.1,0,0,1,3.13,1.3,1.11,1.11,0,0,0,0-.51,5.38,5.38,0,0,0-2.17-2.65A11.5,11.5,0,0,0,118.15,28a6.83,6.83,0,0,0-2.88-.32,2.87,2.87,0,0,0-1.7.84c-.67.8-.35,1.93,1.22,2.75C110.83,31.08,111.82,35.35,115.12,35.54Z"/><path class="cls-1" d="M123.52,43a14.9,14.9,0,0,0,1.14-3.69l.19-2a3.19,3.19,0,0,0-.52-1.92,6.52,6.52,0,0,1-1.29,2.7c-1,1.48-2.14,2.43-2.56,2.22-.21-.12-.22-.54,0-1.11a7.63,7.63,0,0,1,1-2,6,6,0,0,1,2.3-2.18,1.65,1.65,0,0,0-.56-.14,4.81,4.81,0,0,0-1.67.22,6.3,6.3,0,0,0-.88.33,9.09,9.09,0,0,0-.87.47A11.67,11.67,0,0,0,117,38.09a4.39,4.39,0,0,0-1.12,2.2,2,2,0,0,0,.32,1.57c.57.72,1.76.9,3.07-.09-.74,1.53,0,2.49,1,2.73a2.29,2.29,0,0,0,.83,0,2.68,2.68,0,0,0,.87-.2A2.91,2.91,0,0,0,123.52,43Z"/><path class="cls-1" d="M134,38.88a13.87,13.87,0,0,0-3.21-2.48l-.31-.15-.69-.32-1-.42a4.18,4.18,0,0,0-2.18-.22,6.63,6.63,0,0,1,2.31,2.05c1.1,1.4,1.6,2.82,1.19,3.08s-1.58-.66-2.68-2.08A6.16,6.16,0,0,1,126,35.61a1.33,1.33,0,0,0-.32.41,5.18,5.18,0,0,0-.15,3.23,12.25,12.25,0,0,0,1.12,3.21c.94,1.79,2.16,2.44,3.1,2.28s1.58-1.1,1.25-2.68c1.09,1.33,2.27,1.13,3,.29A2.67,2.67,0,0,0,134,38.88Z"/><path class="cls-1" d="M133.71,27.86a14.13,14.13,0,0,0-3.81,2l-1.63,1.48a3.15,3.15,0,0,0-.91,1.8,7.48,7.48,0,0,1,3-1.35c1.92-.44,3.64-.42,3.78,0s-1.33,1.18-3.22,1.61a20.2,20.2,0,0,1-2,.38,3.84,3.84,0,0,1-1.36,0,1.46,1.46,0,0,0,.34.42,4.43,4.43,0,0,0,1.45.78c.29.1.6.18.91.26s.65.16,1,.23a15,15,0,0,0,3.72.23c4.4-.16,5-3.43,1.31-4.06,1.86-.47,2.13-1.64,1.46-2.6A3.63,3.63,0,0,0,133.71,27.86Z"/><path class="cls-1" d="M120.63,25.48a13.24,13.24,0,0,0,1.61,3.6l1.25,1.71A4,4,0,0,0,125.25,32a5.76,5.76,0,0,1-.69-2.85c-.07-1.75.34-3.19.92-3.21s1.08,1.42,1.1,3.17a5.26,5.26,0,0,1-.59,3,1.69,1.69,0,0,0,.56-.16c1.84-.84,3.34-3.89,3.72-5.66.43-2-.32-3.24-1.41-3.66a2.54,2.54,0,0,0-3.17,1.53c-.22-1.7-1.65-2.09-2.94-1.72A2.74,2.74,0,0,0,120.63,25.48Z"/><path class="cls-1" d="M123.5,35.05a1.91,1.91,0,0,1,.59-2.86,2.44,2.44,0,0,1,1.76-.33,2.39,2.39,0,0,1,1.48.9,1.92,1.92,0,0,1-.67,2.83A2.53,2.53,0,0,1,123.5,35.05Z"/><path class="cls-1" d="M141.42,33.37a12.63,12.63,0,0,1,1.85.21c.38.08.79.15,1.21.27s.84.25,1.26.4l2.11.94a3.69,3.69,0,0,1,1.6,1.48,3.91,3.91,0,0,0-1.31-.37,12.13,12.13,0,0,0-2-.09,10.23,10.23,0,0,0-2.45.34c-.62.21-1,.45-.95.69s.45.4,1.09.53a10.67,10.67,0,0,0,2.47.16,15.18,15.18,0,0,0,2-.21,3.53,3.53,0,0,0,1.24-.39,1.3,1.3,0,0,1-.14.49,3.67,3.67,0,0,1-1,1.14,8.42,8.42,0,0,1-.73.49c-.27.17-.54.32-.83.47a13.43,13.43,0,0,1-3.31,1.22,7.21,7.21,0,0,1-.73.11l-.68.06a4.07,4.07,0,0,1-1.14-.1,2.34,2.34,0,0,1-1.43-.89c-.55-.81-.25-2,1.28-2.7a2.63,2.63,0,0,1-1.94-.64,1.59,1.59,0,0,1-.44-1.43,2.57,2.57,0,0,1,.9-1.5A3.25,3.25,0,0,1,141.42,33.37Z"/><path class="cls-1" d="M151.8,27.43a11.35,11.35,0,0,1,.39,3.92l-.33,2a3.13,3.13,0,0,1-1,1.71,6.07,6.07,0,0,0-.68-3c-.77-1.7-1.9-2.9-2.42-2.75s-.24,1.63.56,3.29a7.83,7.83,0,0,0,1.89,2.7,2,2,0,0,1-.59,0,3.51,3.51,0,0,1-.79-.23,6.14,6.14,0,0,1-.84-.37,10.37,10.37,0,0,1-1.66-1.1,16.55,16.55,0,0,1-1.51-1.36A14,14,0,0,1,143.62,31c-1.33-1.71-1.37-3.14-.66-3.84a1.87,1.87,0,0,1,1.54-.46,3.72,3.72,0,0,1,2.09,1c-.7-1.66.27-2.48,1.62-2.5A3.8,3.8,0,0,1,151.8,27.43Z"/><path class="cls-1" d="M161.83,35.54a19,19,0,0,1-4.24.75l-2.3.08a4.91,4.91,0,0,1-2.22-.58,7.7,7.7,0,0,0,3-1.09c1.63-.92,2.74-2,2.4-2.39s-2,0-3.61.88a9.52,9.52,0,0,0-1.57,1.13,2.8,2.8,0,0,0-.75,1,1.71,1.71,0,0,1-.21-.5c-.4-1.85,1.47-4.61,3-5.83a4.14,4.14,0,0,1,4.43-.82,1.72,1.72,0,0,1,1,1.25,2.33,2.33,0,0,1-.61,1.79,2.36,2.36,0,1,1,1.75,4.34Z"/><path class="cls-1" d="M156.6,45.27a10.57,10.57,0,0,1-1.06-1.34c-.41-.58-.86-1.23-1.27-1.94l-.9-1.91a3.38,3.38,0,0,1-.25-2,7.82,7.82,0,0,0,2.26,2.28c.38.28.77.53,1.12.75a9.74,9.74,0,0,0,1,.56c.59.28,1,.36,1.21.19s0-.58-.38-1.09A9,9,0,0,0,156.52,39a7.65,7.65,0,0,0-3.06-1.52,1.36,1.36,0,0,1,.46-.27,6.93,6.93,0,0,1,3.67,0,15.18,15.18,0,0,1,3.59,1.47,5.29,5.29,0,0,1,2,1.87,2,2,0,0,1,.29,1.64c-.29.9-1.46,1.33-3.09.68,1.28,1.34.85,2.46-.13,3a3,3,0,0,1-1.76.27A3.14,3.14,0,0,1,156.6,45.27Z"/><path class="cls-1" d="M145.21,43.93a12.47,12.47,0,0,1,2.13-3.25l1.52-1.38a3.71,3.71,0,0,1,1.95-.78,5.92,5.92,0,0,0-1.4,2.59c-.52,1.67-.55,3.14-.09,3.28s1.3-1.08,1.85-2.74a5.36,5.36,0,0,0,.36-3A1.91,1.91,0,0,1,152,39a5.59,5.59,0,0,1,1.32,3.12,10.7,10.7,0,0,1,0,3.37c-.4,2-1.45,2.93-2.38,3a1.46,1.46,0,0,1-1.26-.53,2.89,2.89,0,0,1-.67-1.76c-.66,1.56-1.84,1.69-2.73,1.07a3,3,0,0,1-1-1.36A2.87,2.87,0,0,1,145.21,43.93Z"/><path class="cls-1" d="M149.9,35.17a1.93,1.93,0,0,0-.14,2.92,2.52,2.52,0,0,0,3.21.35,1.9,1.9,0,0,0,.24-2.9A2.6,2.6,0,0,0,149.9,35.17Z"/><path class="cls-1" d="M165.45,44.24a12,12,0,0,0,1.55.93c.66.35,1.47.67,2.26,1l2.12.72a4.56,4.56,0,0,0,2.18.08,9.15,9.15,0,0,1-2.69-2,15,15,0,0,1-1.64-1.91c-.37-.54-.52-1-.35-1.13s.64,0,1.25.29a10.09,10.09,0,0,1,2,1.61,6.55,6.55,0,0,1,2,2.75,1.2,1.2,0,0,0,.26-.44,3.45,3.45,0,0,0,.1-1.56,8.28,8.28,0,0,0-.5-1.82,13.45,13.45,0,0,0-1.89-3.31c-1.53-1.76-3.16-2.33-4.14-2s-1.32,1.42-.47,3a2.64,2.64,0,0,0-2-.65,1.57,1.57,0,0,0-1.18,1,2.51,2.51,0,0,0-.06,1.74A3.61,3.61,0,0,0,165.45,44.24Z"/><path class="cls-1" d="M168.48,55.06a15.23,15.23,0,0,0,2.94-2.46L172.67,51a3.28,3.28,0,0,0,.6-1.91,6.36,6.36,0,0,1-2.53,1.55c-1.67.7-3.15,1-3.37.51s.89-1.39,2.55-2.1a5.84,5.84,0,0,1,3.12-.62,1.65,1.65,0,0,0-.38-.42,6.74,6.74,0,0,0-3.44-1,10.43,10.43,0,0,0-3.54.4c-2,.61-2.78,1.78-2.71,2.73s1,1.69,2.65,1.56c-1.46.89-1.35,2.08-.62,2.88A2.89,2.89,0,0,0,168.48,55.06Z"/><path class="cls-1" d="M179.5,57.29a9,9,0,0,0-.4-1.65,13.49,13.49,0,0,0-.94-2.19L177,51.61a3.83,3.83,0,0,0-1.72-1.37,6.16,6.16,0,0,1,.83,3c.15,1.8-.19,3.23-.67,3.24s-1-1.43-1.11-3.24a6,6,0,0,1,.25-3,1.3,1.3,0,0,0-.51.18c-1.6.94-2.5,4.13-2.65,5.91a5.44,5.44,0,0,0,.29,2.41,2.07,2.07,0,0,0,1.06,1.2c.86.37,2-.11,2.53-1.6.19,1.7,1.27,2.2,2.33,1.91A2.69,2.69,0,0,0,179.5,57.29Z"/><path class="cls-1" d="M185.24,47.85a9.39,9.39,0,0,0-1.82-.33,17.15,17.15,0,0,0-2.49,0l-2.15.33a3.09,3.09,0,0,0-1.74,1,7.53,7.53,0,0,1,3.21.52c1.91.6,3.29,1.62,3.17,2.08-.07.22-.51.29-1.15.21a16,16,0,0,1-2.44-.61,7.78,7.78,0,0,1-3-1.58,1.79,1.79,0,0,0,.06.54A6.8,6.8,0,0,0,179,52.88c.51.44,1,.91,1.53,1.29a12.69,12.69,0,0,0,1.45.95,6.61,6.61,0,0,0,2.51.86,2.06,2.06,0,0,0,1.6-.43c.7-.62.59-1.9-.79-3.16,1.82.61,2.66-.21,2.64-1.39A3.68,3.68,0,0,0,185.24,47.85Z"/><path class="cls-1" d="M175.51,38.77a12.94,12.94,0,0,0-.57,3.88L175,43.7l.06,1.06a4.12,4.12,0,0,0,.78,2,5.84,5.84,0,0,1,1-2.79c.89-1.5,2-2.48,2.5-2.17s.15,1.75-.77,3.23a5.49,5.49,0,0,1-2.12,2.19,2,2,0,0,0,.56.16,6.51,6.51,0,0,0,3.37-.78,11.36,11.36,0,0,0,2.82-1.94c1.42-1.42,1.49-2.91.81-3.86a2.51,2.51,0,0,0-3.51-.42A2.14,2.14,0,0,0,179,37.33,2.82,2.82,0,0,0,175.51,38.77Z"/><path class="cls-1" d="M172.77,48.35a1.88,1.88,0,0,1,2-2.08,2.55,2.55,0,0,1,2.43,2.22,1.94,1.94,0,0,1-2.1,2A2.45,2.45,0,0,1,172.77,48.35Z"/><path class="cls-1" d="M188.73,56.65a16.43,16.43,0,0,1,3.16,3.08l1.25,2a3.85,3.85,0,0,1,.56,2.1,7.94,7.94,0,0,0-2.51-2.16c-.42-.25-.82-.47-1.2-.65a8.52,8.52,0,0,0-1.06-.37c-.63-.17-1.07-.16-1.17,0-.21.44,1,1.49,2.63,2.51a7.87,7.87,0,0,0,3.07,1.24,1.27,1.27,0,0,1-.39.33,6,6,0,0,1-3.34.38,14.14,14.14,0,0,1-3.43-.78c-2-.7-2.87-1.88-2.9-2.85a1.38,1.38,0,0,1,.62-1.22,2.69,2.69,0,0,1,1.91-.36,3.89,3.89,0,0,1-.89-.77,1.82,1.82,0,0,1-.41-.79,1.6,1.6,0,0,1,.42-1.45A2.86,2.86,0,0,1,188.73,56.65Z"/><path class="cls-1" d="M200.68,57.27a11.41,11.41,0,0,1-1.8,3.51l-1.36,1.51a3.13,3.13,0,0,1-1.79.86,5.76,5.76,0,0,0,1-2.85c.25-1.83,0-3.48-.53-3.63s-1.09,1.25-1.33,3.08A7.47,7.47,0,0,0,195,63a1.72,1.72,0,0,1-.48-.33,7.34,7.34,0,0,1-1.85-3.2c-.11-.33-.2-.67-.29-1s-.18-.64-.26-1a12.72,12.72,0,0,1-.28-1.7c-.18-2.17.56-3.4,1.54-3.6s2.19.63,2.77,2.39a1.77,1.77,0,0,1,1-1.54,2,2,0,0,1,1.68.32A3.9,3.9,0,0,1,200.68,57.27Z"/><path class="cls-1" d="M204.71,69.52a10.58,10.58,0,0,1-1.7-.59c-.35-.14-.72-.31-1.09-.49s-.8-.37-1.19-.57l-2-1.19a7,7,0,0,1-.94-.83,3.18,3.18,0,0,1-.63-.84,4.23,4.23,0,0,0,1.27.43,11.74,11.74,0,0,0,1.86.26c1.86.11,3.36-.17,3.3-.71s-1.64-1.11-3.5-1.21a5.62,5.62,0,0,0-3.11.53,1.46,1.46,0,0,1,.1-.53c.66-1.77,3.73-3.09,5.64-3.29a6,6,0,0,1,1.47,0,4.22,4.22,0,0,1,1.2.35,3.28,3.28,0,0,1,1.51,1.33c.57,1,.2,2.23-1.36,2.75a2.77,2.77,0,0,1,1.89,1.16,2.28,2.28,0,0,1,.29,1.73A2.45,2.45,0,0,1,204.71,69.52Z"/><path class="cls-1" d="M195.07,74.88a18.77,18.77,0,0,1-.19-4l.27-2.11A3.35,3.35,0,0,1,196,67a8.38,8.38,0,0,0,.66,3.14c.7,1.77,1.51,3.16,2,3,.23-.06.32-.48.27-1.12a7.54,7.54,0,0,0-.17-1.11,10.24,10.24,0,0,0-.42-1.3,7.29,7.29,0,0,0-1.73-2.94,1.24,1.24,0,0,1,.54,0,7,7,0,0,1,3,2,11,11,0,0,1,1.31,1.61,13.84,13.84,0,0,1,.92,1.55,7.25,7.25,0,0,1,.55,1.43,4.94,4.94,0,0,1,.12,1.21,2.06,2.06,0,0,1-.65,1.54,1.4,1.4,0,0,1-1.37.21,2.41,2.41,0,0,1-.8-.45,6.71,6.71,0,0,1-.81-.85,2.11,2.11,0,0,1-.3,1.92,1.56,1.56,0,0,1-1.39.49A3.15,3.15,0,0,1,195.07,74.88Z"/><path class="cls-1" d="M186.2,67.6A12,12,0,0,1,189.74,66l1-.19,1-.17a3.66,3.66,0,0,1,2.06.41,5.79,5.79,0,0,0-2.58,1.42c-1.34,1.12-2.17,2.34-1.85,2.72s1.66-.21,3-1.3a5.43,5.43,0,0,0,1.92-2.34,1.9,1.9,0,0,1,.23.52,3.69,3.69,0,0,1,0,1.59,7.79,7.79,0,0,1-.57,1.73,10.69,10.69,0,0,1-1.86,2.82c-1.4,1.44-2.8,1.69-3.63,1.25A1.47,1.47,0,0,1,188,74a1.78,1.78,0,0,1-.28-.66,2.9,2.9,0,0,1,.39-1.85c-1.4,1-2.44.41-2.86-.59A2.79,2.79,0,0,1,186.2,67.6Z"/><path class="cls-1" d="M194.89,62.76a1.93,1.93,0,0,0-1.7,2.38,2.48,2.48,0,0,0,2.51,2,1.88,1.88,0,0,0,1.76-2.31A2.59,2.59,0,0,0,194.89,62.76Z"/><path class="cls-1" d="M203.08,78.79a17.92,17.92,0,0,0,2.15,3.7l1.4,1.76a4.12,4.12,0,0,0,1.79,1.23,8.21,8.21,0,0,1-1.2-3.09,15.92,15.92,0,0,1-.37-2.5c0-.66.09-1.09.32-1.13s.56.31.89.91a7.38,7.38,0,0,1,.48,1.08c.14.42.27.89.38,1.38a7,7,0,0,1,.17,3.36,1.24,1.24,0,0,0,.46-.23A5.34,5.34,0,0,0,211,82.2a12.21,12.21,0,0,0,.18-3.8c-.33-2.3-1.37-3.69-2.38-4s-1.89.48-2,2.25c-.72-1.83-2-2.07-2.89-1.47A2.94,2.94,0,0,0,203.08,78.79Z"/><path class="cls-1" d="M199.79,89.54a15.12,15.12,0,0,0,3.81-.49l1.9-.66A3.24,3.24,0,0,0,207,87.11a6.91,6.91,0,0,1-3,0c-1.78-.32-3.15-.92-3.1-1.41s1.5-.69,3.27-.39a6.09,6.09,0,0,1,3,1.17,1.47,1.47,0,0,0-.11-.56,6.84,6.84,0,0,0-2.36-2.68,11.1,11.1,0,0,0-3.2-1.58c-2-.56-3.29,0-3.75.84s-.09,2,1.38,2.75c-1.73,0-2.25,1-2.06,2.09A2.83,2.83,0,0,0,199.79,89.54Z"/><path class="cls-1" d="M207.86,97.36a12,12,0,0,0,.94-4v-2.2a3.8,3.8,0,0,0-.72-2.07,5.92,5.92,0,0,1-.9,3c-.86,1.6-1.91,2.62-2.32,2.36s0-1.72.81-3.31a6.08,6.08,0,0,1,1.86-2.43,1.48,1.48,0,0,0-.53-.13c-1.85-.07-4.34,2.13-5.43,3.55-1.18,1.58-1.33,3-.81,3.77s1.7,1,3,0a2.72,2.72,0,0,0-.3,1,1.63,1.63,0,0,0,1.24,1.82A2.7,2.7,0,0,0,207.86,97.36Z"/><path class="cls-1" d="M217.8,92.52a7.1,7.1,0,0,0-.56-.59c-.23-.21-.51-.44-.82-.67a16.88,16.88,0,0,0-2.07-1.37l-2-.88a3.18,3.18,0,0,0-2-.08,6.8,6.8,0,0,1,2.43,2.16,11.37,11.37,0,0,1,1.4,2.19c.26.63.33,1.11.15,1.27-.37.32-1.56-.75-2.81-2.27a8.33,8.33,0,0,1-1.69-3,1.54,1.54,0,0,0-.24.48c-.58,1.89.64,5.29,1.52,7.07,1.07,1.94,2.29,2.74,3.24,2.59a1.4,1.4,0,0,0,1-.93,2.63,2.63,0,0,0,.17-.94,4.42,4.42,0,0,0-.2-1.22,2.48,2.48,0,0,0,1.73,1.06,1.51,1.51,0,0,0,1.27-.81A3.78,3.78,0,0,0,217.8,92.52Z"/><path class="cls-1" d="M214.49,79.62a13,13,0,0,0-2.58,3l-1,1.84a4,4,0,0,0-.44,2.13,6,6,0,0,1,2.32-1.82c1.57-.79,3-1,3.28-.48s-.82,1.56-2.4,2.31a5.41,5.41,0,0,1-3,.7,2,2,0,0,0,.38.44,6.49,6.49,0,0,0,3.28,1.15,11,11,0,0,0,3.4-.1c2-.43,2.83-1.65,2.78-2.82a2.55,2.55,0,0,0-2.74-2.25,2.12,2.12,0,0,0,.37-3.41A2.79,2.79,0,0,0,214.49,79.62Z"/><path class="cls-1" d="M207,86.2a1.88,1.88,0,0,1,2.83-.65,2.57,2.57,0,0,1,.83,3.19,1.94,1.94,0,0,1-2.86.57A2.46,2.46,0,0,1,207,86.2Z"/><path class="cls-1" d="M216,101.81a16.8,16.8,0,0,1,1,4.31s0,.57,0,1.15l0,1.16a3.89,3.89,0,0,1-.68,2.07,8.21,8.21,0,0,0-.91-3.18c-.89-1.75-2-2.92-2.37-2.67-.21.13-.21.58-.05,1.22a16.19,16.19,0,0,0,.91,2.31,7.13,7.13,0,0,0,1.89,2.71,1.4,1.4,0,0,1-.51.07,6,6,0,0,1-3-1.49,14,14,0,0,1-1.37-1.28,12.75,12.75,0,0,1-1.1-1.23c-1.27-1.67-1.35-3.14-.89-4s1.65-1,3,0C210.22,99.75,214.46,98.69,216,101.81Z"/><path class="cls-1" d="M225.66,108.81a11,11,0,0,1-3.38,2l-2,.52a3.17,3.17,0,0,1-2-.24,5.77,5.77,0,0,0,2.38-1.84c1.21-1.4,1.9-2.94,1.55-3.35s-1.59.46-2.8,1.88a7.09,7.09,0,0,0-1.66,2.83,1.92,1.92,0,0,1-.24-.54,7.47,7.47,0,0,1,.22-3.7,14.25,14.25,0,0,1,1.26-3.51c1-1.94,2.3-2.56,3.25-2.2s1.48,1.72,1,3.52c1.2-1.32,2.37-.78,3,.44A3.89,3.89,0,0,1,225.66,108.81Z"/><path class="cls-1" d="M222.44,121.29a20.36,20.36,0,0,1-2.47-3.54l-.48-1-.34-.71-.16-.32a4.58,4.58,0,0,1-.44-2.25,7.56,7.56,0,0,0,2.29,2.27c1.48,1.11,2.88,1.68,3.13,1.2.13-.24-.06-.7-.46-1.23a9.31,9.31,0,0,0-1.84-1.68,5.49,5.49,0,0,0-2.88-1.24,1.59,1.59,0,0,1,.38-.4c1.53-1.13,4.8-.58,6.5.29,1.89,1,2.75,2.5,2.61,3.69s-1.07,2-2.65,1.58c1.35,1.31,1.17,2.8.28,3.6A2.42,2.42,0,0,1,222.44,121.29Z"/><path class="cls-1" d="M211.42,120.57a16.16,16.16,0,0,1,2-3.48s.36-.4.7-.8l.66-.82a3.35,3.35,0,0,1,1.7-1,4.25,4.25,0,0,0-.58,1.16c-.17.51-.37,1.14-.54,1.84-.44,1.87-.42,3.47,0,3.63s1.19-1.23,1.62-3.14a10.36,10.36,0,0,0,.3-2,4.2,4.2,0,0,0-.17-1.36,1.47,1.47,0,0,1,.45.3,4.29,4.29,0,0,1,.91,1.42,10.87,10.87,0,0,1,.54,2,12.39,12.39,0,0,1,.17,3.87c-.6,4.58-3.93,4.49-4.18,1-.65,1.72-1.84,1.79-2.73,1.11a3,3,0,0,1-1-1.49A3.56,3.56,0,0,1,211.42,120.57Z"/><path class="cls-1" d="M207.92,109.64a12.1,12.1,0,0,1,3.81.61l1.91.8a3.43,3.43,0,0,1,1.53,1.45,5.86,5.86,0,0,0-2.93-.21c-1.73.23-3.09.8-3,1.29s1.49.73,3.23.55a5.46,5.46,0,0,0,2.89-.92,1.62,1.62,0,0,1-.1.56,5.48,5.48,0,0,1-2.24,2.48,10.19,10.19,0,0,1-3.1,1.36,4.82,4.82,0,0,1-2.42,0,2.2,2.2,0,0,1-1.31-.93c-.5-.81-.15-1.91,1.27-2.7a2.13,2.13,0,0,1-1.74-.61,1.73,1.73,0,0,1-.37-1.43A2.85,2.85,0,0,1,207.92,109.64Z"/><path class="cls-1" d="M217.82,110.29a1.89,1.89,0,0,0-2.69,1.07,2.51,2.51,0,0,0,1,3.08,1.9,1.9,0,0,0,2.74-1A2.5,2.5,0,0,0,217.82,110.29Z"/></svg>